<?xml version="1.0" standalone="no"?>
<!DOCTYPE svg PUBLIC "-//W3C//DTD SVG 20010904//EN"
 "http://www.w3.org/TR/2001/REC-SVG-20010904/DTD/svg10.dtd">
<svg version="1.0" xmlns="http://www.w3.org/2000/svg"
 width="111.000000pt" height="111.000000pt" viewBox="0 0 111.000000 111.000000"
 preserveAspectRatio="xMidYMid meet">
<metadata>
Created by potrace 1.14, written by Peter Selinger 2001-2017
</metadata>
<g transform="translate(0.000000,111.000000) scale(0.100000,-0.100000)"
fill="#000000" stroke="none">
<path d="M80 851 c-5 -11 -11 -32 -11 -48 -1 -17 -3 -21 -6 -10 -6 21 -29 22
-37 1 -16 -41 2 -104 28 -104 16 0 26 -22 26 -53 -1 -18 -4 -15 -18 13 -22 45
-52 53 -52 14 0 -20 13 -39 43 -68 24 -23 46 -49 50 -59 4 -10 -8 -2 -27 17
-38 41 -56 46 -56 15 0 -27 52 -79 80 -79 12 0 18 4 15 10 -4 6 -1 9 6 8 7 -2
16 12 20 31 6 28 2 47 -20 93 -24 51 -26 60 -14 77 10 15 12 38 7 90 -7 73
-15 86 -34 52z m-4 -122 c-9 -20 -15 -27 -16 -16 0 20 19 61 26 54 2 -2 -2
-19 -10 -38z"/>
<path d="M976 800 c-3 -41 -2 -79 4 -89 11 -22 -3 -75 -28 -103 -10 -12 -13
-30 -9 -60 3 -24 3 -35 0 -25 -6 23 -25 17 -40 -13 -6 -13 -25 -29 -41 -36
-17 -7 -33 -21 -36 -32 -8 -23 -113 -95 -121 -82 -6 10 -47 -1 -95 -25 -64
-33 -69 -35 -75 -25 -3 6 -15 10 -26 10 -11 0 -32 9 -47 19 -39 27 -82 36 -82
16 0 -27 38 -55 74 -55 44 0 66 -9 66 -26 0 -8 7 -14 15 -14 23 0 30 4 27 14
-5 15 20 26 59 26 21 0 47 9 63 21 21 17 26 18 26 5 0 -9 8 -16 20 -16 11 0
20 -4 20 -8 0 -13 47 -32 80 -32 33 0 60 9 60 20 0 13 -78 43 -98 38 -18 -5
-18 -4 2 27 17 26 22 29 27 16 4 -9 5 -19 3 -22 -2 -4 10 -12 26 -19 25 -10
37 -9 75 6 25 11 45 24 45 30 0 15 -55 26 -87 17 -20 -4 -24 -3 -18 7 5 7 12
27 16 44 5 24 7 26 8 9 1 -13 5 -23 10 -23 14 0 41 41 41 62 0 10 7 18 15 18
9 0 18 12 21 29 4 19 21 39 49 59 41 29 68 82 50 100 -9 10 -38 -12 -52 -39
-7 -14 -13 -17 -13 -9 0 28 12 60 20 55 12 -7 40 35 40 60 0 12 -7 30 -16 41
-13 16 -16 17 -21 4 -4 -9 -10 -1 -17 24 -18 63 -32 54 -40 -24z m42 -65 c-3
-3 -9 2 -12 12 -6 14 -5 15 5 6 7 -7 10 -15 7 -18z"/>
<path d="M497 780 c-36 -39 -36 -39 -71 -25 -20 8 -42 15 -50 15 -20 0 -36
-32 -45 -89 -4 -28 -12 -45 -19 -43 -21 4 -24 -24 -8 -57 21 -39 20 -41 -6
-41 -37 0 -68 -11 -68 -24 0 -19 62 -73 103 -90 54 -22 125 -29 175 -18 28 7
55 7 79 0 76 -21 215 27 259 90 14 21 14 23 -11 32 -14 6 -35 10 -46 10 -23 0
-23 -1 -4 44 16 39 12 61 -10 52 -8 -3 -14 9 -18 37 -11 95 -34 113 -102 83
-29 -12 -32 -11 -66 26 -20 21 -41 38 -46 38 -6 0 -27 -18 -46 -40z"/>
<path d="M1024 572 c-27 -23 -59 -82 -44 -82 37 0 90 53 90 90 0 15 -23 11
-46 -8z"/>
<path d="M147 519 c-8 -30 15 -93 35 -97 9 -2 18 4 20 13 2 9 8 1 14 -20 11
-36 11 -36 -14 -30 -33 8 -82 -3 -82 -19 0 -22 77 -51 108 -40 51 18 55 108 6
141 -22 14 -27 14 -35 2 -7 -11 -9 -8 -9 9 0 27 -17 62 -29 62 -5 0 -11 -10
-14 -21z"/>
<path d="M50 480 c0 -7 15 -27 34 -46 24 -24 43 -34 66 -34 l31 0 -26 35 c-15
19 -37 37 -48 40 -12 4 -30 9 -39 11 -10 3 -18 0 -18 -6z"/>
<path d="M990 479 c-27 -11 -80 -58 -80 -71 0 -26 92 8 110 41 21 40 13 47
-30 30z"/>
<path d="M280 390 c0 -12 4 -30 10 -40 8 -15 5 -19 -23 -24 -46 -9 -83 -36
-66 -47 31 -20 139 -2 139 23 0 4 6 8 14 8 44 0 22 51 -34 80 l-40 20 0 -20z"/>
<path d="M325 269 c-44 -39 -44 -49 0 -49 24 0 45 9 70 31 19 17 32 35 29 40
-12 20 -64 8 -99 -22z"/>
<path d="M660 292 c0 -4 6 -14 13 -22 6 -7 1 -6 -13 3 -25 18 -70 23 -70 9 0
-14 54 -59 79 -67 21 -6 23 -5 18 14 -5 20 -4 20 24 6 29 -15 89 -21 89 -8 0
4 -17 22 -37 40 -26 23 -46 33 -70 33 -18 0 -33 -4 -33 -8z"/>
<path d="M421 264 c-40 -33 -42 -59 -3 -50 29 8 85 60 75 70 -13 13 -43 5 -72
-20z"/>
</g>
</svg>
